<svg xmlns="http://www.w3.org/2000/svg" width="128" height="128" fill-rule="evenodd" viewBox="0 0 128 128" shape-rendering="geometricPrecision" text-rendering="geometricPrecision" image-rendering="optimizeQuality" clip-rule="evenodd"><defs><style><![CDATA[
    .fil2 {fill:none}
    .fil0 {fill:#231815}
    .fil1 {fill:#FEFEFE}
   ]]></style></defs><g id="Layer_x0020_1"><g id="_687474703a2f2f6d6f7269736869747465722e6769746875622e696f2f7374796c65666d742d6c6f676f2e737667.svg"><path d="M8 41v-6c1-1 1-2 2-3s2-2 4-2c1-1 3-1 5-1-4 1-6 4-6 9v19c-1 1-1 2-1 3-1 1-1 2-2 2-1 1-2 1-3 2 2 1 4 2 5 3 0 2 1 4 1 7v16c0 2 0 4 1 6 1 1 3 2 5 3-2 0-4 0-5-1-2 0-3-1-4-1-1-1-1-3-1-4-1-1-1-3-1-5V73c0-3 0-4-1-6-1-1-3-2-5-3 1-1 2-1 3-2 1 0 2-1 2-1 0-1 1-2 1-3V41zm112 14v3c0 1 1 2 1 3 0 0 1 1 2 1 1 1 2 1 3 2-2 1-4 2-5 3-1 2-1 3-1 6v15c0 2 0 4-1 5 0 1 0 3-1 4-1 0-2 1-4 1-1 1-3 1-5 1 2-1 4-2 5-3 1-2 1-4 1-6V74c0-3 1-5 1-7 1-1 3-2 5-3-1-1-2-1-3-2-1 0-1-1-2-2 0-1 0-2-1-3V38c0-5-2-8-6-9 2 0 4 0 5 1 2 0 3 1 4 2s1 2 2 3v20zm-82 6h40V44H38v17z" class="fil0"/><path d="M39 83h62V68H39v15z" class="fil1"/><path d="M38 84h64V67H38v17zm2-2h60V69H40v13zm-11 6h2V40h-2v48z" class="fil0"/></g><path d="M0 0h128v128H0z" class="fil2"/></g></svg>